#!OML:ASF E:\Steps\Project 1\Capture day 1\Session 2\Subject.ASF
:FULLY-SPECIFIED
:DEGREES
180
root 16.9334 16.3072 21.7605 -158.244 -13.1948 173.662
lowerback -21.1869 -0.594262 -6.20295
upperback 2.04808 0.855716 -0.768973
thorax 14.2569 -0.0968694 2.94212
lowerneck -4.68594 2.57684 -0.994594
upperneck 11.9471 2.89614 3.14575
head 4.74851 1.41952 1.40081
rclavicle 9.93923e-016 2.98177e-014
rhumerus -33.5341 -19.3149 -76.9259
rradius 31.5415
rwrist -0.0661233
rhand -8.88868 -411.396
rfingers 7.12502
rthumb 17.0536 -440.667
lclavicle 9.93923e-016 2.98177e-014
lhumerus -31.0637 2.9065 83.3762
lradius 24.7506
lwrist -1.75948
lhand -21.1919 -15.0498
lfingers 7.12502
lthumb 5.18907 14.8667
rfemur -24.2361 1.68581 19.4894
rtibia 18.8198
rfoot -24.956 -9.74632
rtoes -13.3666
lfemur -56.9584 -6.39207 -24.9641
ltibia 76.0606
lfoot -11.0915 -7.16884
ltoes -18.0845
181
root 16.9324 16.309 21.7517 -158.346 -13.2532 173.466
lowerback -21.1562 -0.566402 -6.2647
upperback 2.10246 0.912108 -0.774489
thorax 14.2978 -0.0774306 2.98932
lowerneck -4.68684 2.48284 -0.832102
upperneck 12.0544 2.7804 2.8758
head 4.79683 1.35473 1.27526
rclavicle -3.63776e-014 3.18055e-015
rhumerus -33.6357 -19.2544 -76.854
rradius 31.7617
rwrist -0.159265
rhand -9.4217 -410.348
rfingers 7.12502
rthumb 16.5405 -439.663
lclavicle -3.63776e-014 3.18055e-015
lhumerus -31.2127 3.20374 83.2702
lradius 24.7717
lwrist -1.81712
lhand -21.0736 -14.7664
lfingers 7.12502
lthumb 5.30332 15.1472
rfemur -24.0596 1.56407 19.2874
rtibia 18.8707
rfoot -25.044 -9.81028
rtoes -13.8364
lfemur -58.2139 -5.94917 -25.3729
ltibia 78.5895
lfoot -12.0813 -6.99691
ltoes -20.0492
182
root 16.9303 16.3114 21.7491 -158.283 -13.214 173.28
lowerback -21.2108 -0.529019 -6.28554
upperback 2.09902 0.973754 -0.800294
thorax 14.3199 -0.0510628 2.99241
lowerneck -4.65591 2.41462 -0.78153
upperneck 12.0969 2.69851 2.72776
head 4.81056 1.3082 1.21126
rclavicle -2.5842e-015 1.35174e-014
rhumerus -33.58 -19.0777 -76.8762
rradius 31.9119
rwrist -0.370311
rhand -10.4919 -410.004
rfingers 7.12502
rthumb 15.5099 -439.402
lclavicle -2.5842e-015 1.35174e-014
lhumerus -31.281 3.55576 83.1075
lradius 24.6215
lwrist -1.92787
lhand -21.0418 -14.6781
lfingers 7.12502
lthumb 5.33403 15.2348
rfemur -24.1644 1.43308 19.0637
rtibia 19.0239
rfoot -25.0685 -9.75781
rtoes -13.7357
lfemur -59.6657 -5.4414 -25.7876
ltibia 81.4042
lfoot -19.0228 7.05381
ltoes -23.0151
183
root 16.9285 16.313 21.747 -158.35 -13.2641 173.13
lowerback -21.111 -0.463831 -6.28006
upperback 2.11235 1.05506 -0.814545
thorax 14.2692 -0.0109341 2.99846
lowerneck -4.52908 2.43154 -0.83035
upperneck 12.1513 2.71995 2.71378
head 4.80364 1.31259 1.21459
rclavicle 3.37934e-015 -3.57812e-015
rhumerus -33.5435 -18.9984 -76.848
rradius 31.9372
rwrist -0.582685
rhand -9.9795 -411.04
rfingers 7.12502
rthumb 16.0034 -440.399
lclavicle 3.37934e-015 -3.57812e-015
lhumerus -31.4103 3.58826 83.0161
lradius 24.5301
lwrist -2.03132
lhand -20.788 -14.9486
lfingers 7.12502
lthumb 5.57906 14.9579
rfemur -24.2284 1.36481 18.9035
rtibia 19.441
rfoot -25.326 -9.76903
rtoes -13.0151
lfemur -60.9765 -5.02861 -26.0721
ltibia 84.4003
lfoot -25.4925 21.2156
ltoes -25.2343
184
root 16.9283 16.3124 21.7423 -158.611 -13.4734 173.088
lowerback -20.8727 -0.411573 -6.16552
upperback 2.1832 1.08239 -0.787361
thorax 14.2111 0.0127276 2.97064
lowerneck -4.39524 2.53645 -0.771454
upperneck 12.2547 2.86491 2.55841
head 4.81415 1.37473 1.15762
rclavicle 1.02374e-014 -4.73108e-014
rhumerus -33.5245 -19.0049 -76.8121
rradius 31.9873
rwrist -0.720465
rhand -11.0266 -409.457
rfingers 7.12502
rthumb 14.9948 -438.894
lclavicle 1.02374e-014 -4.73108e-014
lhumerus -31.67 3.49624 82.9875
lradius 24.6541
lwrist -2.1374
lhand -21.0376 -15.0903
lfingers 7.12502
lthumb 5.33803 14.8225
rfemur -24.011 1.43552 18.902
rtibia 19.7535
rfoot -25.6227 -10.0227
rtoes -13.0734
lfemur -62.1434 -4.70937 -26.1639
ltibia 87.0744
lfoot -31.6975 36.2295
ltoes -29.5633
185
root 16.9256 16.3104 21.7332 -158.845 -13.5812 173.007
lowerback -20.7579 -0.407659 -6.09461
upperback 2.29218 1.06579 -0.73793
thorax 14.2744 0.0070038 2.98054
lowerneck -4.35446 2.66047 -0.921005
upperneck 12.2437 3.04418 2.58785
head 4.79511 1.45789 1.2028
rclavicle 3.47873e-015 -5.56597e-015
rhumerus -33.3373 -18.9375 -76.7692
rradius 31.9684
rwrist -0.693632
rhand -10.3682 -410.656
rfingers 7.12502
rthumb 15.6291 -440.045
lclavicle 3.47873e-015 -5.56597e-015
lhumerus -31.7994 3.76661 82.9343
lradius 24.6379
lwrist -2.3343
lhand -21.4165 -15.0668
lfingers 7.12502
lthumb 4.97218 14.8549
rfemur -23.691 1.54429 18.8297
rtibia 19.804
rfoot -25.7322 -10.2853
rtoes -13.4226
lfemur -63.2952 -4.3605 -26.2768
ltibia 89.0183
lfoot -38.0952 52.1314
ltoes -30.7986
186
root 16.9234 16.3092 21.7188 -159.206 -13.7002 172.938
lowerback -20.5841 -0.413251 -6.01976
upperback 2.451 1.03487 -0.687479
thorax 14.3635 -0.00598646 2.9842
lowerneck -4.39255 2.72294 -1.18723
upperneck 12.1229 3.13711 2.81305
head 4.74859 1.50685 1.33077
rclavicle 3.0911e-014 1.82882e-014
rhumerus -33.168 -18.7801 -76.7765
rradius 31.8951
rwrist -0.669813
rhand -9.79084 -410.939
rfingers 7.12502
rthumb 16.1851 -440.283
lclavicle 3.0911e-014 1.82882e-014
lhumerus -31.8086 4.12455 82.7838
lradius 24.5436
lwrist -2.40788
lhand -21.1165 -15.2473
lfingers 7.12502
lthumb 5.26185 14.6674
rfemur -23.281 1.67557 18.7922
rtibia 20.0256
rfoot -25.9617 -10.5997
rtoes -13.8367
lfemur -64.2483 -4.05356 -26.2842
ltibia 90.004
lfoot -58.1735 61.248
ltoes -27.392
187
root 16.9189 16.3133 21.7017 -159.617 -13.7334 172.727
lowerback -20.2898 -0.357646 -5.99481
upperback 2.58531 1.10217 -0.774921
thorax 14.3445 0.0312267 2.88815
lowerneck -4.39513 2.7191 -1.14975
upperneck 12.1047 3.1306 2.8107
head 4.7432 1.50589 1.32267
rclavicle 9.24349e-015 -3.73715e-014
rhumerus -33.2875 -18.7852 -76.8359
rradius 32.0014
rwrist -0.742108
rhand -9.82454 -410.414
rfingers 7.12502
rthumb 16.1526 -439.761
lclavicle 9.24349e-015 -3.73715e-014
lhumerus -31.8705 4.13521 82.5593
lradius 24.5202
lwrist -2.14335
lhand -20.7071 -15.1686
lfingers 7.12502
lthumb 5.65713 14.7359
rfemur -22.8278 1.80144 18.5691
rtibia 20.3376
rfoot -26.2329 -10.8452
rtoes -14.6889
lfemur -65.0009 -3.79658 -26.3881
ltibia 89.995
lfoot -89.8414 69.5037
ltoes -27.9559
188
root 16.9156 16.3136 21.6958 -159.765 -13.7407 172.616
lowerback -20.0587 -0.267076 -5.83455
upperback 2.56913 1.17538 -0.860362
thorax 14.1847 0.0876884 2.71948
lowerneck -4.36219 2.72637 -1.05332
upperneck 12.1817 3.13336 2.74046
head 4.76738 1.50576 1.2823
rclavicle 3.47873e-015 1.98785e-014
rhumerus -33.4963 -18.9389 -76.8249
rradius 32.1855
rwrist -0.63289
rhand -10.2884 -409.469
rfingers 7.12502
rthumb 15.7059 -438.852
lclavicle 3.47873e-015 1.98785e-014
lhumerus -31.9338 4.0654 82.3523
lradius 24.4138
lwrist -1.97986
lhand -20.6551 -14.7025
lfingers 7.12502
lthumb 5.70739 15.2006
rfemur -22.8445 1.81367 18.4592
rtibia 20.8253
rfoot -26.5113 -10.8822
rtoes -14.9312
lfemur -66.1984 -3.47647 -26.3354
ltibia 89.0658
lfoot -131.413 67.8644
ltoes -26.5845
